# xmcd CD database file
#
# Track frame offsets:
#	150
#	20949
#	39234
#	59077
#	76923
#	98976
#	127216
#	149567
#	164577
#	179468
#	200476
#	213995
#	231912
#	259217
#	281350
#
# Disc length: 4082 seconds
#
# Revision: 0
# Processed by: cddbd v1.5.2PL0 Copyright (c) Steve Scherf et al.
# Submitted via: CDex 1.51
#
DISCID=eb0ff00f
DTITLE=Wes Montgomery - Wes Montgomery Three Classic Albums CD2
DYEAR=1958
DGENRE=Jazz
TTITLE0=Hymn For Carl (Far Wes-1958)
TTITLE1=Montgomery Funk
TTITLE2=Stompin' At The Savoy
TTITLE3=Monk's Slip
TTITLE4=Summertime
TTITLE5=Falling In Love Again
TTITLE6=Round Midnight (The Wes Montgomery Trio-1959)
TTITLE7=Yesterday's
TTITLE8=The End Of A Love Affair
TTITLE9=Whisper Not
TTITLE10=Ecaroh
TTITLE11=Satin Doll
TTITLE12=Missile Blues
TTITLE13=Too Late Now
TTITLE14=Jingles
EXTD=YEAR: 1958
EXTT0=
EXTT1=
EXTT2=
EXTT3=
EXTT4=
EXTT5=
EXTT6=
EXTT7=
EXTT8=
EXTT9=
EXTT10=
EXTT11=
EXTT12=
EXTT13=
EXTT14=
PLAYORDER=
